<svg width="387" height="240" viewBox="0 0 387 240" fill="none" xmlns="http://www.w3.org/2000/svg">
<path d="M9.16371 25.3555H7.14169C7.10476 25.0939 7.02936 24.8615 6.91548 24.6584C6.80161 24.4522 6.65542 24.2768 6.47692 24.1321C6.29841 23.9875 6.09221 23.8767 5.85831 23.7997C5.62749 23.7228 5.37666 23.6843 5.10582 23.6843C4.61648 23.6843 4.19022 23.8059 3.82706 24.049C3.4639 24.2891 3.18229 24.6399 2.98224 25.1016C2.7822 25.5601 2.68217 26.1172 2.68217 26.7727C2.68217 27.4467 2.7822 28.013 2.98224 28.4716C3.18537 28.9302 3.46851 29.2764 3.83168 29.5103C4.19484 29.7442 4.61494 29.8612 5.09197 29.8612C5.35973 29.8612 5.60748 29.8258 5.83523 29.755C6.06605 29.6842 6.27072 29.5811 6.44922 29.4457C6.62772 29.3072 6.77545 29.1394 6.8924 28.9425C7.01243 28.7455 7.09553 28.5208 7.14169 28.2685L9.16371 28.2777C9.11139 28.7116 8.98059 29.1302 8.77131 29.5334C8.5651 29.9335 8.28658 30.292 7.93572 30.609C7.58795 30.9229 7.17247 31.1722 6.68928 31.3569C6.20916 31.5385 5.66596 31.6293 5.05966 31.6293C4.21638 31.6293 3.46236 31.4384 2.79759 31.0568C2.13589 30.6752 1.61269 30.1228 1.22798 29.3995C0.846354 28.6763 0.65554 27.8007 0.65554 26.7727C0.65554 25.7417 0.849432 24.8646 1.23722 24.1413C1.625 23.4181 2.15128 22.8672 2.81605 22.4886C3.48082 22.107 4.22869 21.9162 5.05966 21.9162C5.60748 21.9162 6.11529 21.9931 6.5831 22.147C7.05398 22.3009 7.471 22.5256 7.83416 22.821C8.19732 23.1134 8.49278 23.4719 8.72053 23.8967C8.95135 24.3214 9.09908 24.8076 9.16371 25.3555ZM15.3164 28.4808V24.4091H17.283V31.5H15.3949V30.212H15.321C15.161 30.6275 14.8948 30.9614 14.5224 31.2138C14.1531 31.4661 13.7022 31.5923 13.1697 31.5923C12.6958 31.5923 12.2788 31.4846 11.9187 31.2692C11.5586 31.0537 11.277 30.7475 11.0739 30.3505C10.8738 29.9535 10.7723 29.478 10.7692 28.924V24.4091H12.7358V28.5732C12.7389 28.9917 12.8512 29.3226 13.0728 29.5657C13.2944 29.8088 13.5914 29.9304 13.9638 29.9304C14.2008 29.9304 14.4223 29.8765 14.6286 29.7688C14.8348 29.658 15.0009 29.4949 15.1271 29.2795C15.2564 29.064 15.3195 28.7978 15.3164 28.4808ZM19.0504 31.5V24.4091H20.957V25.6463H21.0309C21.1602 25.2062 21.3771 24.8738 21.6818 24.6491C21.9865 24.4214 22.3374 24.3075 22.7344 24.3075C22.8329 24.3075 22.939 24.3137 23.0529 24.326C23.1668 24.3383 23.2668 24.3552 23.353 24.3768V26.1218C23.2607 26.0941 23.1329 26.0695 22.9698 26.0479C22.8067 26.0264 22.6574 26.0156 22.522 26.0156C22.2327 26.0156 21.9742 26.0787 21.7464 26.2049C21.5218 26.328 21.3433 26.5004 21.2109 26.7219C21.0817 26.9435 21.017 27.199 21.017 27.4883V31.5H19.0504ZM24.5661 31.5V24.4091H26.4727V25.6463H26.5465C26.6758 25.2062 26.8928 24.8738 27.1974 24.6491C27.5021 24.4214 27.853 24.3075 28.25 24.3075C28.3485 24.3075 28.4547 24.3137 28.5685 24.326C28.6824 24.3383 28.7824 24.3552 28.8686 24.3768V26.1218C28.7763 26.0941 28.6486 26.0695 28.4854 26.0479C28.3223 26.0264 28.1731 26.0156 28.0376 26.0156C27.7483 26.0156 27.4898 26.0787 27.2621 26.2049C27.0374 26.328 26.8589 26.5004 26.7266 26.7219C26.5973 26.9435 26.5327 27.199 26.5327 27.4883V31.5H24.5661ZM32.9851 31.6385C32.2557 31.6385 31.6278 31.4908 31.1016 31.1953C30.5784 30.8968 30.1752 30.4751 29.892 29.9304C29.6089 29.3826 29.4673 28.7347 29.4673 27.9869C29.4673 27.2575 29.6089 26.6173 29.892 26.0664C30.1752 25.5155 30.5737 25.0862 31.0877 24.7784C31.6048 24.4706 32.2111 24.3168 32.9066 24.3168C33.3744 24.3168 33.8099 24.3922 34.2131 24.543C34.6193 24.6907 34.9732 24.9138 35.2749 25.2124C35.5795 25.5109 35.8165 25.8864 35.9858 26.3388C36.1551 26.7881 36.2397 27.3144 36.2397 27.9176V28.4577H30.2521V27.239H34.3885C34.3885 26.9558 34.3269 26.705 34.2038 26.4865C34.0807 26.268 33.9099 26.0972 33.6914 25.9741C33.476 25.8479 33.2251 25.7848 32.9389 25.7848C32.6404 25.7848 32.3757 25.854 32.1449 25.9925C31.9171 26.128 31.7386 26.3111 31.6094 26.5419C31.4801 26.7696 31.4139 27.0236 31.4109 27.3036V28.4624C31.4109 28.8132 31.4755 29.1164 31.6048 29.3718C31.7371 29.6272 31.9233 29.8242 32.1634 29.9627C32.4034 30.1012 32.6881 30.1705 33.0174 30.1705C33.2359 30.1705 33.436 30.1397 33.6175 30.0781C33.7991 30.0166 33.9545 29.9242 34.0838 29.8011C34.2131 29.678 34.3116 29.5272 34.3793 29.3487L36.1982 29.4688C36.1058 29.9058 35.9165 30.2874 35.6303 30.6136C35.3472 30.9368 34.9809 31.1892 34.5316 31.3707C34.0853 31.5492 33.5698 31.6385 32.9851 31.6385ZM39.6889 27.4006V31.5H37.7223V24.4091H39.5966V25.6602H39.6797C39.8366 25.2478 40.0998 24.9215 40.4691 24.6815C40.8384 24.4383 41.2862 24.3168 41.8125 24.3168C42.3049 24.3168 42.7343 24.4245 43.1005 24.6399C43.4667 24.8554 43.7514 25.1631 43.9545 25.5632C44.1577 25.9602 44.2592 26.4342 44.2592 26.9851V31.5H42.2926V27.3359C42.2957 26.902 42.1849 26.5634 41.9602 26.3203C41.7356 26.0741 41.4263 25.951 41.0323 25.951C40.7676 25.951 40.5337 26.0079 40.3306 26.1218C40.1306 26.2357 39.9736 26.4019 39.8597 26.6204C39.7489 26.8358 39.692 27.0959 39.6889 27.4006ZM49.7752 24.4091V25.8864H45.505V24.4091H49.7752ZM46.4744 22.7102H48.4411V29.321C48.4411 29.5026 48.4688 29.6442 48.5241 29.7457C48.5795 29.8442 48.6565 29.9135 48.755 29.9535C48.8565 29.9935 48.9735 30.0135 49.1058 30.0135C49.1982 30.0135 49.2905 30.0058 49.3828 29.9904C49.4751 29.9719 49.5459 29.9581 49.5952 29.9489L49.9045 31.4123C49.806 31.4431 49.6675 31.4785 49.489 31.5185C49.3105 31.5616 49.0935 31.5877 48.8381 31.5969C48.3641 31.6154 47.9486 31.5523 47.5916 31.4077C47.2377 31.263 46.9622 31.0384 46.7653 30.7337C46.5683 30.429 46.4714 30.0443 46.4744 29.5795V22.7102ZM63.1974 26.7727C63.1974 27.8037 63.002 28.6809 62.6112 29.4041C62.2234 30.1274 61.694 30.6798 61.0231 31.0614C60.3552 31.44 59.6043 31.6293 58.7702 31.6293C57.93 31.6293 57.176 31.4384 56.5082 31.0568C55.8403 30.6752 55.3125 30.1228 54.9247 29.3995C54.5369 28.6763 54.343 27.8007 54.343 26.7727C54.343 25.7417 54.5369 24.8646 54.9247 24.1413C55.3125 23.4181 55.8403 22.8672 56.5082 22.4886C57.176 22.107 57.93 21.9162 58.7702 21.9162C59.6043 21.9162 60.3552 22.107 61.0231 22.4886C61.694 22.8672 62.2234 23.4181 62.6112 24.1413C63.002 24.8646 63.1974 25.7417 63.1974 26.7727ZM61.1708 26.7727C61.1708 26.1049 61.0708 25.5417 60.8707 25.0831C60.6738 24.6245 60.3952 24.2768 60.0352 24.0398C59.6751 23.8028 59.2534 23.6843 58.7702 23.6843C58.2871 23.6843 57.8654 23.8028 57.5053 24.0398C57.1452 24.2768 56.8652 24.6245 56.6651 25.0831C56.4682 25.5417 56.3697 26.1049 56.3697 26.7727C56.3697 27.4406 56.4682 28.0038 56.6651 28.4624C56.8652 28.9209 57.1452 29.2687 57.5053 29.5057C57.8654 29.7427 58.2871 29.8612 58.7702 29.8612C59.2534 29.8612 59.6751 29.7427 60.0352 29.5057C60.3952 29.2687 60.6738 28.9209 60.8707 28.4624C61.0708 28.0038 61.1708 27.4406 61.1708 26.7727ZM68.0511 31.6385C67.3248 31.6385 66.7 31.4846 66.1768 31.1768C65.6567 30.866 65.2566 30.4351 64.9766 29.8842C64.6996 29.3333 64.5611 28.6993 64.5611 27.9822C64.5611 27.2559 64.7011 26.6188 64.9812 26.071C65.2643 25.5201 65.666 25.0908 66.1861 24.783C66.7062 24.4722 67.3248 24.3168 68.0419 24.3168C68.6605 24.3168 69.2022 24.4291 69.6669 24.6538C70.1316 24.8784 70.4994 25.1939 70.7702 25.6001C71.0411 26.0064 71.1903 26.4834 71.218 27.0312H69.3622C69.3099 26.6773 69.1714 26.3926 68.9467 26.1772C68.7251 25.9587 68.4343 25.8494 68.0742 25.8494C67.7695 25.8494 67.5033 25.9325 67.2756 26.0987C67.0509 26.2618 66.8755 26.5004 66.7493 26.8143C66.6231 27.1282 66.56 27.5083 66.56 27.9545C66.56 28.407 66.6216 28.7917 66.7447 29.1087C66.8709 29.4257 67.0478 29.6673 67.2756 29.8335C67.5033 29.9996 67.7695 30.0827 68.0742 30.0827C68.2989 30.0827 68.5005 30.0366 68.679 29.9442C68.8606 29.8519 69.0098 29.718 69.1268 29.5426C69.2468 29.3641 69.3253 29.1502 69.3622 28.9009H71.218C71.1873 29.4426 71.0395 29.9196 70.7749 30.332C70.5133 30.7414 70.1516 31.0614 69.69 31.2923C69.2283 31.5231 68.6821 31.6385 68.0511 31.6385ZM75.8949 31.6385C75.1686 31.6385 74.5438 31.4846 74.0206 31.1768C73.5005 30.866 73.1004 30.4351 72.8203 29.8842C72.5433 29.3333 72.4048 28.6993 72.4048 27.9822C72.4048 27.2559 72.5449 26.6188 72.8249 26.071C73.1081 25.5201 73.5097 25.0908 74.0298 24.783C74.55 24.4722 75.1686 24.3168 75.8857 24.3168C76.5043 24.3168 77.0459 24.4291 77.5107 24.6538C77.9754 24.8784 78.3432 25.1939 78.614 25.6001C78.8848 26.0064 79.0341 26.4834 79.0618 27.0312H77.206C77.1536 26.6773 77.0152 26.3926 76.7905 26.1772C76.5689 25.9587 76.2781 25.8494 75.918 25.8494C75.6133 25.8494 75.3471 25.9325 75.1193 26.0987C74.8946 26.2618 74.7192 26.5004 74.593 26.8143C74.4669 27.1282 74.4038 27.5083 74.4038 27.9545C74.4038 28.407 74.4653 28.7917 74.5884 29.1087C74.7146 29.4257 74.8916 29.6673 75.1193 29.8335C75.3471 29.9996 75.6133 30.0827 75.918 30.0827C76.1426 30.0827 76.3442 30.0366 76.5227 29.9442C76.7043 29.8519 76.8536 29.718 76.9705 29.5426C77.0906 29.3641 77.169 29.1502 77.206 28.9009H79.0618C79.031 29.4426 78.8833 29.9196 78.6186 30.332C78.357 30.7414 77.9954 31.0614 77.5337 31.2923C77.0721 31.5231 76.5258 31.6385 75.8949 31.6385ZM85.082 28.4808V24.4091H87.0487V31.5H85.1605V30.212H85.0866C84.9266 30.6275 84.6604 30.9614 84.288 31.2138C83.9187 31.4661 83.4678 31.5923 82.9354 31.5923C82.4614 31.5923 82.0444 31.4846 81.6843 31.2692C81.3242 31.0537 81.0426 30.7475 80.8395 30.3505C80.6394 29.9535 80.5379 29.478 80.5348 28.924V24.4091H82.5014V28.5732C82.5045 28.9917 82.6168 29.3226 82.8384 29.5657C83.06 29.8088 83.357 29.9304 83.7294 29.9304C83.9664 29.9304 84.188 29.8765 84.3942 29.7688C84.6004 29.658 84.7666 29.4949 84.8928 29.2795C85.022 29.064 85.0851 28.7978 85.082 28.4808ZM88.8161 34.1591V24.4091H90.755V25.6001H90.8427C90.9289 25.4093 91.0535 25.2154 91.2166 25.0185C91.3828 24.8184 91.5982 24.6522 91.8629 24.5199C92.1307 24.3845 92.4631 24.3168 92.8601 24.3168C93.3771 24.3168 93.8542 24.4522 94.2912 24.723C94.7282 24.9908 95.0775 25.3955 95.3391 25.9371C95.6007 26.4757 95.7315 27.1513 95.7315 27.9638C95.7315 28.7547 95.6038 29.4226 95.3484 29.9673C95.096 30.509 94.7513 30.9199 94.3143 31.1999C93.8803 31.4769 93.3941 31.6154 92.8555 31.6154C92.4738 31.6154 92.1491 31.5523 91.8814 31.4261C91.6167 31.3 91.3997 31.1415 91.2305 30.9506C91.0612 30.7567 90.9319 30.5613 90.8427 30.3643H90.7827V34.1591H88.8161ZM90.7411 27.9545C90.7411 28.3762 90.7996 28.744 90.9165 29.0579C91.0335 29.3718 91.2028 29.6165 91.4244 29.7919C91.646 29.9643 91.9152 30.0504 92.2322 30.0504C92.5523 30.0504 92.8232 29.9627 93.0447 29.7873C93.2663 29.6088 93.4341 29.3626 93.5479 29.0487C93.6649 28.7317 93.7234 28.367 93.7234 27.9545C93.7234 27.5452 93.6664 27.1851 93.5526 26.8743C93.4387 26.5634 93.271 26.3203 93.0494 26.1449C92.8278 25.9695 92.5554 25.8817 92.2322 25.8817C91.9122 25.8817 91.6413 25.9664 91.4197 26.1357C91.2012 26.3049 91.0335 26.545 90.9165 26.8558C90.7996 27.1667 90.7411 27.5329 90.7411 27.9545ZM99.2599 31.6339C98.8075 31.6339 98.4044 31.5554 98.0504 31.3984C97.6965 31.2384 97.4164 31.003 97.2102 30.6921C97.0071 30.3782 96.9055 29.9873 96.9055 29.5195C96.9055 29.1256 96.9779 28.7947 97.1225 28.527C97.2672 28.2592 97.4641 28.0438 97.7134 27.8807C97.9627 27.7176 98.2459 27.5945 98.5629 27.5114C98.8829 27.4283 99.2184 27.3698 99.5692 27.3359C99.9817 27.2929 100.314 27.2528 100.566 27.2159C100.819 27.1759 101.002 27.1174 101.116 27.0405C101.23 26.9635 101.287 26.8497 101.287 26.6989V26.6712C101.287 26.3788 101.194 26.1526 101.01 25.9925C100.828 25.8325 100.569 25.7525 100.234 25.7525C99.8801 25.7525 99.5985 25.831 99.3892 25.9879C99.1799 26.1418 99.0414 26.3357 98.9737 26.5696L97.1548 26.4219C97.2472 25.991 97.4287 25.6186 97.6996 25.3047C97.9704 24.9877 98.3197 24.7446 98.7475 24.5753C99.1784 24.4029 99.677 24.3168 100.243 24.3168C100.637 24.3168 101.014 24.3629 101.374 24.4553C101.737 24.5476 102.059 24.6907 102.339 24.8846C102.622 25.0785 102.845 25.3278 103.009 25.6325C103.172 25.9341 103.253 26.2957 103.253 26.7173V31.5H101.388V30.5167H101.333C101.219 30.7383 101.067 30.9337 100.876 31.103C100.685 31.2692 100.456 31.4 100.188 31.4954C99.9201 31.5877 99.6108 31.6339 99.2599 31.6339ZM99.8232 30.2766C100.112 30.2766 100.368 30.2197 100.589 30.1058C100.811 29.9889 100.985 29.8319 101.111 29.6349C101.237 29.438 101.3 29.2148 101.3 28.9656V28.2131C101.239 28.2531 101.154 28.29 101.047 28.3239C100.942 28.3546 100.823 28.3839 100.691 28.4116C100.559 28.4362 100.426 28.4593 100.294 28.4808C100.162 28.4993 100.042 28.5162 99.9339 28.5316C99.7031 28.5655 99.5015 28.6193 99.3292 28.6932C99.1568 28.767 99.023 28.8671 98.9276 28.9933C98.8321 29.1164 98.7844 29.2702 98.7844 29.4549C98.7844 29.7227 98.8814 29.9273 99.0753 30.0689C99.2723 30.2074 99.5215 30.2766 99.8232 30.2766ZM106.955 27.4006V31.5H104.988V24.4091H106.862V25.6602H106.945C107.102 25.2478 107.365 24.9215 107.735 24.6815C108.104 24.4383 108.552 24.3168 109.078 24.3168C109.571 24.3168 110 24.4245 110.366 24.6399C110.732 24.8554 111.017 25.1631 111.22 25.5632C111.423 25.9602 111.525 26.4342 111.525 26.9851V31.5H109.558V27.3359C109.561 26.902 109.451 26.5634 109.226 26.3203C109.001 26.0741 108.692 25.951 108.298 25.951C108.033 25.951 107.799 26.0079 107.596 26.1218C107.396 26.2357 107.239 26.4019 107.125 26.6204C107.015 26.8358 106.958 27.0959 106.955 27.4006ZM116.473 31.6385C115.747 31.6385 115.122 31.4846 114.599 31.1768C114.079 30.866 113.679 30.4351 113.398 29.8842C113.121 29.3333 112.983 28.6993 112.983 27.9822C112.983 27.2559 113.123 26.6188 113.403 26.071C113.686 25.5201 114.088 25.0908 114.608 24.783C115.128 24.4722 115.747 24.3168 116.464 24.3168C117.082 24.3168 117.624 24.4291 118.089 24.6538C118.554 24.8784 118.921 25.1939 119.192 25.6001C119.463 26.0064 119.612 26.4834 119.64 27.0312H117.784C117.732 26.6773 117.593 26.3926 117.369 26.1772C117.147 25.9587 116.856 25.8494 116.496 25.8494C116.191 25.8494 115.925 25.9325 115.697 26.0987C115.473 26.2618 115.297 26.5004 115.171 26.8143C115.045 27.1282 114.982 27.5083 114.982 27.9545C114.982 28.407 115.043 28.7917 115.167 29.1087C115.293 29.4257 115.47 29.6673 115.697 29.8335C115.925 29.9996 116.191 30.0827 116.496 30.0827C116.721 30.0827 116.922 30.0366 117.101 29.9442C117.282 29.8519 117.432 29.718 117.549 29.5426C117.669 29.3641 117.747 29.1502 117.784 28.9009H119.64C119.609 29.4426 119.461 29.9196 119.197 30.332C118.935 30.7414 118.574 31.0614 118.112 31.2923C117.65 31.5231 117.104 31.6385 116.473 31.6385ZM122.327 34.1591C122.078 34.1591 121.844 34.1391 121.625 34.0991C121.41 34.0621 121.231 34.0144 121.09 33.956L121.533 32.4879C121.764 32.5587 121.972 32.5972 122.156 32.6033C122.344 32.6095 122.506 32.5664 122.641 32.4741C122.779 32.3817 122.892 32.2248 122.978 32.0032L123.093 31.7031L120.55 24.4091H122.618L124.086 29.6165H124.16L125.642 24.4091H127.724L124.968 32.2663C124.835 32.648 124.655 32.9804 124.428 33.2635C124.203 33.5497 123.918 33.7698 123.574 33.9237C123.229 34.0806 122.813 34.1591 122.327 34.1591Z" fill="#638773"/>
<path d="M0.821733 219.5V210.045H2.82067V213.946H6.87855V210.045H8.87287V219.5H6.87855V215.594H2.82067V219.5H0.821733ZM10.6911 219.5V212.409H12.6577V219.5H10.6911ZM11.679 211.495C11.3866 211.495 11.1358 211.398 10.9265 211.204C10.7203 211.007 10.6172 210.772 10.6172 210.498C10.6172 210.227 10.7203 209.995 10.9265 209.801C11.1358 209.604 11.3866 209.505 11.679 209.505C11.9714 209.505 12.2206 209.604 12.4268 209.801C12.6361 209.995 12.7408 210.227 12.7408 210.498C12.7408 210.772 12.6361 211.007 12.4268 211.204C12.2206 211.398 11.9714 211.495 11.679 211.495ZM20.3253 214.431L18.5249 214.542C18.4941 214.388 18.4279 214.25 18.3263 214.126C18.2248 214 18.0909 213.9 17.9247 213.826C17.7616 213.749 17.5662 213.711 17.3384 213.711C17.0337 213.711 16.7768 213.776 16.5675 213.905C16.3582 214.031 16.2536 214.2 16.2536 214.413C16.2536 214.582 16.3213 214.725 16.4567 214.842C16.5921 214.959 16.8245 215.053 17.1538 215.124L18.4371 215.382C19.1265 215.524 19.6405 215.751 19.979 216.065C20.3176 216.379 20.4869 216.792 20.4869 217.303C20.4869 217.767 20.3499 218.175 20.076 218.526C19.8052 218.877 19.4328 219.151 18.9588 219.348C18.4879 219.542 17.9447 219.638 17.3292 219.638C16.3905 219.638 15.6426 219.443 15.0856 219.052C14.5316 218.658 14.2069 218.123 14.1115 217.446L16.0458 217.344C16.1043 217.63 16.2459 217.849 16.4705 218C16.6952 218.147 16.983 218.221 17.3338 218.221C17.6785 218.221 17.9555 218.155 18.1648 218.023C18.3771 217.887 18.4848 217.713 18.4879 217.501C18.4848 217.323 18.4094 217.176 18.2617 217.062C18.114 216.946 17.8862 216.856 17.5785 216.795L16.3505 216.55C15.658 216.412 15.1425 216.172 14.804 215.83C14.4685 215.488 14.3008 215.053 14.3008 214.523C14.3008 214.068 14.4239 213.676 14.6701 213.346C14.9194 213.017 15.2687 212.763 15.718 212.585C16.1705 212.406 16.6998 212.317 17.3061 212.317C18.2017 212.317 18.9065 212.506 19.4205 212.885C19.9375 213.263 20.2391 213.779 20.3253 214.431ZM25.6971 212.409V213.886H21.4268V212.409H25.6971ZM22.3963 210.71H24.3629V217.321C24.3629 217.503 24.3906 217.644 24.446 217.746C24.5014 217.844 24.5784 217.913 24.6768 217.953C24.7784 217.993 24.8954 218.013 25.0277 218.013C25.12 218.013 25.2124 218.006 25.3047 217.99C25.397 217.972 25.4678 217.958 25.517 217.949L25.8263 219.412C25.7279 219.443 25.5894 219.478 25.4109 219.518C25.2324 219.562 25.0154 219.588 24.7599 219.597C24.286 219.615 23.8705 219.552 23.5135 219.408C23.1596 219.263 22.8841 219.038 22.6871 218.734C22.4902 218.429 22.3932 218.044 22.3963 217.58V210.71ZM30.3011 219.638C29.584 219.638 28.9639 219.486 28.4407 219.181C27.9206 218.874 27.5189 218.446 27.2358 217.898C26.9527 217.347 26.8111 216.709 26.8111 215.982C26.8111 215.25 26.9527 214.61 27.2358 214.062C27.5189 213.511 27.9206 213.083 28.4407 212.778C28.9639 212.471 29.584 212.317 30.3011 212.317C31.0182 212.317 31.6368 212.471 32.157 212.778C32.6802 213.083 33.0833 213.511 33.3665 214.062C33.6496 214.61 33.7912 215.25 33.7912 215.982C33.7912 216.709 33.6496 217.347 33.3665 217.898C33.0833 218.446 32.6802 218.874 32.157 219.181C31.6368 219.486 31.0182 219.638 30.3011 219.638ZM30.3104 218.115C30.6366 218.115 30.909 218.023 31.1275 217.838C31.346 217.65 31.5107 217.395 31.6214 217.072C31.7353 216.749 31.7923 216.381 31.7923 215.968C31.7923 215.556 31.7353 215.188 31.6214 214.865C31.5107 214.542 31.346 214.286 31.1275 214.099C30.909 213.911 30.6366 213.817 30.3104 213.817C29.9811 213.817 29.7041 213.911 29.4794 214.099C29.2578 214.286 29.0901 214.542 28.9762 214.865C28.8654 215.188 28.81 215.556 28.81 215.968C28.81 216.381 28.8654 216.749 28.9762 217.072C29.0901 217.395 29.2578 217.65 29.4794 217.838C29.7041 218.023 29.9811 218.115 30.3104 218.115ZM35.2848 219.5V212.409H37.1914V213.646H37.2653C37.3945 213.206 37.6115 212.874 37.9162 212.649C38.2209 212.421 38.5717 212.308 38.9688 212.308C39.0672 212.308 39.1734 212.314 39.2873 212.326C39.4012 212.338 39.5012 212.355 39.5874 212.377V214.122C39.495 214.094 39.3673 214.069 39.2042 214.048C39.0411 214.026 38.8918 214.016 38.7564 214.016C38.4671 214.016 38.2086 214.079 37.9808 214.205C37.7562 214.328 37.5777 214.5 37.4453 214.722C37.3161 214.944 37.2514 215.199 37.2514 215.488V219.5H35.2848ZM40.8004 219.5V212.409H42.767V219.5H40.8004ZM41.7884 211.495C41.496 211.495 41.2451 211.398 41.0359 211.204C40.8297 211.007 40.7266 210.772 40.7266 210.498C40.7266 210.227 40.8297 209.995 41.0359 209.801C41.2451 209.604 41.496 209.505 41.7884 209.505C42.0807 209.505 42.33 209.604 42.5362 209.801C42.7455 209.995 42.8501 210.227 42.8501 210.498C42.8501 210.772 42.7455 211.007 42.5362 211.204C42.33 211.398 42.0807 211.495 41.7884 211.495ZM47.7386 219.638C47.0123 219.638 46.3875 219.485 45.8643 219.177C45.3442 218.866 44.9441 218.435 44.6641 217.884C44.3871 217.333 44.2486 216.699 44.2486 215.982C44.2486 215.256 44.3886 214.619 44.6687 214.071C44.9518 213.52 45.3535 213.091 45.8736 212.783C46.3937 212.472 47.0123 212.317 47.7294 212.317C48.348 212.317 48.8897 212.429 49.3544 212.654C49.8191 212.878 50.1869 213.194 50.4577 213.6C50.7286 214.006 50.8778 214.483 50.9055 215.031H49.0497C48.9974 214.677 48.8589 214.393 48.6342 214.177C48.4126 213.959 48.1218 213.849 47.7617 213.849C47.457 213.849 47.1908 213.933 46.9631 214.099C46.7384 214.262 46.563 214.5 46.4368 214.814C46.3106 215.128 46.2475 215.508 46.2475 215.955C46.2475 216.407 46.3091 216.792 46.4322 217.109C46.5584 217.426 46.7353 217.667 46.9631 217.833C47.1908 218 47.457 218.083 47.7617 218.083C47.9864 218.083 48.188 218.037 48.3665 217.944C48.5481 217.852 48.6973 217.718 48.8143 217.543C48.9343 217.364 49.0128 217.15 49.0497 216.901H50.9055C50.8748 217.443 50.727 217.92 50.4624 218.332C50.2008 218.741 49.8391 219.061 49.3775 219.292C48.9158 219.523 48.3696 219.638 47.7386 219.638ZM54.4006 219.634C53.9482 219.634 53.545 219.555 53.1911 219.398C52.8371 219.238 52.5571 219.003 52.3509 218.692C52.1477 218.378 52.0462 217.987 52.0462 217.52C52.0462 217.126 52.1185 216.795 52.2631 216.527C52.4078 216.259 52.6048 216.044 52.854 215.881C53.1033 215.718 53.3865 215.594 53.7035 215.511C54.0236 215.428 54.359 215.37 54.7099 215.336C55.1223 215.293 55.4547 215.253 55.707 215.216C55.9594 215.176 56.1425 215.117 56.2564 215.04C56.3703 214.964 56.4272 214.85 56.4272 214.699V214.671C56.4272 214.379 56.3349 214.153 56.1502 213.993C55.9686 213.833 55.7101 213.752 55.3746 213.752C55.0207 213.752 54.7391 213.831 54.5298 213.988C54.3205 214.142 54.1821 214.336 54.1143 214.57L52.2955 214.422C52.3878 213.991 52.5694 213.619 52.8402 213.305C53.111 212.988 53.4603 212.745 53.8881 212.575C54.319 212.403 54.8176 212.317 55.3839 212.317C55.7778 212.317 56.1548 212.363 56.5149 212.455C56.8781 212.548 57.1997 212.691 57.4798 212.885C57.7629 213.078 57.986 213.328 58.1491 213.632C58.3123 213.934 58.3938 214.296 58.3938 214.717V219.5H56.5288V218.517H56.4734C56.3595 218.738 56.2071 218.934 56.0163 219.103C55.8255 219.269 55.5962 219.4 55.3285 219.495C55.0607 219.588 54.7514 219.634 54.4006 219.634ZM54.9638 218.277C55.2531 218.277 55.5085 218.22 55.7301 218.106C55.9517 217.989 56.1256 217.832 56.2518 217.635C56.378 217.438 56.4411 217.215 56.4411 216.966V216.213C56.3795 216.253 56.2949 216.29 56.1871 216.324C56.0825 216.355 55.964 216.384 55.8317 216.412C55.6993 216.436 55.567 216.459 55.4347 216.481C55.3023 216.499 55.1823 216.516 55.0746 216.532C54.8438 216.565 54.6422 216.619 54.4698 216.693C54.2975 216.767 54.1636 216.867 54.0682 216.993C53.9728 217.116 53.9251 217.27 53.9251 217.455C53.9251 217.723 54.022 217.927 54.2159 218.069C54.4129 218.207 54.6622 218.277 54.9638 218.277ZM62.0952 210.045V219.5H60.1286V210.045H62.0952ZM75.8068 214.773C75.8068 215.804 75.6114 216.681 75.2205 217.404C74.8327 218.127 74.3034 218.68 73.6325 219.061C72.9646 219.44 72.2137 219.629 71.3796 219.629C70.5394 219.629 69.7854 219.438 69.1175 219.057C68.4497 218.675 67.9219 218.123 67.5341 217.4C67.1463 216.676 66.9524 215.801 66.9524 214.773C66.9524 213.742 67.1463 212.865 67.5341 212.141C67.9219 211.418 68.4497 210.867 69.1175 210.489C69.7854 210.107 70.5394 209.916 71.3796 209.916C72.2137 209.916 72.9646 210.107 73.6325 210.489C74.3034 210.867 74.8327 211.418 75.2205 212.141C75.6114 212.865 75.8068 213.742 75.8068 214.773ZM73.7802 214.773C73.7802 214.105 73.6802 213.542 73.4801 213.083C73.2831 212.625 73.0046 212.277 72.6445 212.04C72.2844 211.803 71.8628 211.684 71.3796 211.684C70.8964 211.684 70.4748 211.803 70.1147 212.04C69.7546 212.277 69.4746 212.625 69.2745 213.083C69.0775 213.542 68.979 214.105 68.979 214.773C68.979 215.441 69.0775 216.004 69.2745 216.462C69.4746 216.921 69.7546 217.269 70.1147 217.506C70.4748 217.743 70.8964 217.861 71.3796 217.861C71.8628 217.861 72.2844 217.743 72.6445 217.506C73.0046 217.269 73.2831 216.921 73.4801 216.462C73.6802 216.004 73.7802 215.441 73.7802 214.773ZM80.6605 219.638C79.9342 219.638 79.3094 219.485 78.7862 219.177C78.2661 218.866 77.866 218.435 77.5859 217.884C77.3089 217.333 77.1705 216.699 77.1705 215.982C77.1705 215.256 77.3105 214.619 77.5906 214.071C77.8737 213.52 78.2753 213.091 78.7955 212.783C79.3156 212.472 79.9342 212.317 80.6513 212.317C81.2699 212.317 81.8116 212.429 82.2763 212.654C82.741 212.878 83.1088 213.194 83.3796 213.6C83.6504 214.006 83.7997 214.483 83.8274 215.031H81.9716C81.9193 214.677 81.7808 214.393 81.5561 214.177C81.3345 213.959 81.0437 213.849 80.6836 213.849C80.3789 213.849 80.1127 213.933 79.8849 214.099C79.6603 214.262 79.4848 214.5 79.3587 214.814C79.2325 215.128 79.1694 215.508 79.1694 215.955C79.1694 216.407 79.2309 216.792 79.354 217.109C79.4802 217.426 79.6572 217.667 79.8849 217.833C80.1127 218 80.3789 218.083 80.6836 218.083C80.9083 218.083 81.1098 218.037 81.2884 217.944C81.4699 217.852 81.6192 217.718 81.7362 217.543C81.8562 217.364 81.9347 217.15 81.9716 216.901H83.8274C83.7966 217.443 83.6489 217.92 83.3842 218.332C83.1226 218.741 82.761 219.061 82.2994 219.292C81.8377 219.523 81.2914 219.638 80.6605 219.638ZM88.5043 219.638C87.7779 219.638 87.1532 219.485 86.63 219.177C86.1098 218.866 85.7098 218.435 85.4297 217.884C85.1527 217.333 85.0142 216.699 85.0142 215.982C85.0142 215.256 85.1542 214.619 85.4343 214.071C85.7174 213.52 86.1191 213.091 86.6392 212.783C87.1593 212.472 87.7779 212.317 88.495 212.317C89.1136 212.317 89.6553 212.429 90.12 212.654C90.5848 212.878 90.9525 213.194 91.2234 213.6C91.4942 214.006 91.6435 214.483 91.6712 215.031H89.8153C89.763 214.677 89.6245 214.393 89.3999 214.177C89.1783 213.959 88.8874 213.849 88.5273 213.849C88.2227 213.849 87.9564 213.933 87.7287 214.099C87.504 214.262 87.3286 214.5 87.2024 214.814C87.0762 215.128 87.0131 215.508 87.0131 215.955C87.0131 216.407 87.0747 216.792 87.1978 217.109C87.324 217.426 87.5009 217.667 87.7287 217.833C87.9564 218 88.2227 218.083 88.5273 218.083C88.752 218.083 88.9536 218.037 89.1321 217.944C89.3137 217.852 89.4629 217.718 89.5799 217.543C89.6999 217.364 89.7784 217.15 89.8153 216.901H91.6712C91.6404 217.443 91.4927 217.92 91.228 218.332C90.9664 218.741 90.6048 219.061 90.1431 219.292C89.6815 219.523 89.1352 219.638 88.5043 219.638ZM97.6914 216.481V212.409H99.658V219.5H97.7699V218.212H97.696C97.536 218.627 97.2698 218.961 96.8974 219.214C96.5281 219.466 96.0772 219.592 95.5447 219.592C95.0708 219.592 94.6538 219.485 94.2937 219.269C93.9336 219.054 93.652 218.748 93.4489 218.35C93.2488 217.953 93.1473 217.478 93.1442 216.924V212.409H95.1108V216.573C95.1139 216.992 95.2262 217.323 95.4478 217.566C95.6694 217.809 95.9664 217.93 96.3388 217.93C96.5758 217.93 96.7973 217.877 97.0036 217.769C97.2098 217.658 97.3759 217.495 97.5021 217.279C97.6314 217.064 97.6945 216.798 97.6914 216.481ZM101.425 222.159V212.409H103.364V213.6H103.452C103.538 213.409 103.663 213.215 103.826 213.018C103.992 212.818 104.208 212.652 104.472 212.52C104.74 212.384 105.072 212.317 105.469 212.317C105.987 212.317 106.464 212.452 106.901 212.723C107.338 212.991 107.687 213.395 107.949 213.937C108.21 214.476 108.341 215.151 108.341 215.964C108.341 216.755 108.213 217.423 107.958 217.967C107.705 218.509 107.361 218.92 106.924 219.2C106.49 219.477 106.003 219.615 105.465 219.615C105.083 219.615 104.759 219.552 104.491 219.426C104.226 219.3 104.009 219.141 103.84 218.951C103.671 218.757 103.541 218.561 103.452 218.364H103.392V222.159H101.425ZM103.35 215.955C103.35 216.376 103.409 216.744 103.526 217.058C103.643 217.372 103.812 217.616 104.034 217.792C104.255 217.964 104.525 218.05 104.842 218.05C105.162 218.05 105.433 217.963 105.654 217.787C105.876 217.609 106.043 217.363 106.157 217.049C106.274 216.732 106.333 216.367 106.333 215.955C106.333 215.545 106.276 215.185 106.162 214.874C106.048 214.563 105.88 214.32 105.659 214.145C105.437 213.969 105.165 213.882 104.842 213.882C104.522 213.882 104.251 213.966 104.029 214.136C103.811 214.305 103.643 214.545 103.526 214.856C103.409 215.167 103.35 215.533 103.35 215.955ZM111.869 219.634C111.417 219.634 111.014 219.555 110.66 219.398C110.306 219.238 110.026 219.003 109.82 218.692C109.616 218.378 109.515 217.987 109.515 217.52C109.515 217.126 109.587 216.795 109.732 216.527C109.877 216.259 110.074 216.044 110.323 215.881C110.572 215.718 110.855 215.594 111.172 215.511C111.492 215.428 111.828 215.37 112.179 215.336C112.591 215.293 112.923 215.253 113.176 215.216C113.428 215.176 113.611 215.117 113.725 215.04C113.839 214.964 113.896 214.85 113.896 214.699V214.671C113.896 214.379 113.804 214.153 113.619 213.993C113.437 213.833 113.179 213.752 112.843 213.752C112.489 213.752 112.208 213.831 111.999 213.988C111.789 214.142 111.651 214.336 111.583 214.57L109.764 214.422C109.857 213.991 110.038 213.619 110.309 213.305C110.58 212.988 110.929 212.745 111.357 212.575C111.788 212.403 112.286 212.317 112.853 212.317C113.247 212.317 113.624 212.363 113.984 212.455C114.347 212.548 114.668 212.691 114.949 212.885C115.232 213.078 115.455 213.328 115.618 213.632C115.781 213.934 115.863 214.296 115.863 214.717V219.5H113.998V218.517H113.942C113.828 218.738 113.676 218.934 113.485 219.103C113.294 219.269 113.065 219.4 112.797 219.495C112.529 219.588 112.22 219.634 111.869 219.634ZM112.433 218.277C112.722 218.277 112.977 218.22 113.199 218.106C113.42 217.989 113.594 217.832 113.721 217.635C113.847 217.438 113.91 217.215 113.91 216.966V216.213C113.848 216.253 113.764 216.29 113.656 216.324C113.551 216.355 113.433 216.384 113.3 216.412C113.168 216.436 113.036 216.459 112.903 216.481C112.771 216.499 112.651 216.516 112.543 216.532C112.313 216.565 112.111 216.619 111.939 216.693C111.766 216.767 111.632 216.867 111.537 216.993C111.442 217.116 111.394 217.27 111.394 217.455C111.394 217.723 111.491 217.927 111.685 218.069C111.882 218.207 112.131 218.277 112.433 218.277ZM119.564 215.401V219.5H117.597V212.409H119.472V213.66H119.555C119.712 213.248 119.975 212.922 120.344 212.681C120.713 212.438 121.161 212.317 121.688 212.317C122.18 212.317 122.609 212.424 122.975 212.64C123.342 212.855 123.626 213.163 123.83 213.563C124.033 213.96 124.134 214.434 124.134 214.985V219.5H122.168V215.336C122.171 214.902 122.06 214.563 121.835 214.32C121.611 214.074 121.301 213.951 120.907 213.951C120.643 213.951 120.409 214.008 120.206 214.122C120.006 214.236 119.849 214.402 119.735 214.62C119.624 214.836 119.567 215.096 119.564 215.401ZM129.082 219.638C128.356 219.638 127.731 219.485 127.208 219.177C126.688 218.866 126.288 218.435 126.008 217.884C125.731 217.333 125.592 216.699 125.592 215.982C125.592 215.256 125.732 214.619 126.012 214.071C126.296 213.52 126.697 213.091 127.217 212.783C127.737 212.472 128.356 212.317 129.073 212.317C129.692 212.317 130.233 212.429 130.698 212.654C131.163 212.878 131.531 213.194 131.801 213.6C132.072 214.006 132.222 214.483 132.249 215.031H130.393C130.341 214.677 130.203 214.393 129.978 214.177C129.756 213.959 129.466 213.849 129.105 213.849C128.801 213.849 128.535 213.933 128.307 214.099C128.082 214.262 127.907 214.5 127.781 214.814C127.654 215.128 127.591 215.508 127.591 215.955C127.591 216.407 127.653 216.792 127.776 217.109C127.902 217.426 128.079 217.667 128.307 217.833C128.535 218 128.801 218.083 129.105 218.083C129.33 218.083 129.532 218.037 129.71 217.944C129.892 217.852 130.041 217.718 130.158 217.543C130.278 217.364 130.357 217.15 130.393 216.901H132.249C132.219 217.443 132.071 217.92 131.806 218.332C131.545 218.741 131.183 219.061 130.721 219.292C130.26 219.523 129.713 219.638 129.082 219.638ZM134.936 222.159C134.687 222.159 134.453 222.139 134.235 222.099C134.019 222.062 133.841 222.014 133.699 221.956L134.142 220.488C134.373 220.559 134.581 220.597 134.766 220.603C134.953 220.609 135.115 220.566 135.25 220.474C135.389 220.382 135.501 220.225 135.587 220.003L135.703 219.703L133.159 212.409H135.227L136.695 217.616H136.769L138.251 212.409H140.333L137.577 220.266C137.445 220.648 137.265 220.98 137.037 221.263C136.812 221.55 136.528 221.77 136.183 221.924C135.838 222.081 135.423 222.159 134.936 222.159Z" fill="#638773"/>
<mask id="path-3-inside-1_1_328" fill="white">
<path d="M156.75 28.5H165.938V93.7344H156.75V28.5Z"/>
</mask>
<path d="M156.75 28.5H165.938V93.7344H156.75V28.5Z" fill="#F0F5F2"/>
<path d="M163.938 28.5V93.7344H167.938V28.5H163.938Z" fill="#638773" mask="url(#path-3-inside-1_1_328)"/>
<mask id="path-5-inside-2_1_328" fill="white">
<path d="M156.75 117.734H193.5V212H156.75V117.734Z"/>
</mask>
<path d="M156.75 117.734H193.5V212H156.75V117.734Z" fill="#F0F5F2"/>
<path d="M191.5 117.734V212H195.5V117.734H191.5Z" fill="#638773" mask="url(#path-5-inside-2_1_328)"/>
</svg>
